<?xml version="1.0" encoding="UTF-8" standalone="no"?>
<!-- Created with Inkscape (http://www.inkscape.org/) -->

<svg
   width="180mm"
   height="130mm"
   viewBox="0 0 180 130"
   version="1.1"
   id="svg1"
   inkscape:version="1.4.3 (0d15f75, 2025-12-25)"
   xml:space="preserve"
   sodipodi:docname="chest.svg"
   xmlns:inkscape="http://www.inkscape.org/namespaces/inkscape"
   xmlns:sodipodi="http://sodipodi.sourceforge.net/DTD/sodipodi-0.dtd"
   xmlns="http://www.w3.org/2000/svg"
   xmlns:svg="http://www.w3.org/2000/svg"><sodipodi:namedview
     id="namedview1"
     pagecolor="#020202"
     bordercolor="#000000"
     borderopacity="1"
     inkscape:showpageshadow="true"
     inkscape:pageopacity="0"
     inkscape:pagecheckerboard="true"
     inkscape:deskcolor="#505050"
     inkscape:document-units="mm"
     labelstyle="default"
     inkscape:zoom="1.2913702"
     inkscape:cx="323.30001"
     inkscape:cy="246.63726"
     inkscape:window-width="2560"
     inkscape:window-height="1406"
     inkscape:window-x="-11"
     inkscape:window-y="-11"
     inkscape:window-maximized="1"
     inkscape:current-layer="svg1" /><defs
     id="defs1" /><path
     style="fill:#000000"
     d="m 12.176725,123.59871 c -1.418021,-0.57118 -1.621763,-1.95444 -2.084566,-14.15267 -0.2045494,-5.39133 -0.1818544,-5.46275 1.871438,-5.88936 l 1.032546,-0.21453 -0.06457,-1.44597 C 12.896062,101.1009 12.75499,98.961934 12.61808,97.142924 12.481171,95.323913 12.067705,89.073132 11.699268,83.252299 11.330831,77.431466 10.852463,70.058807 10.636227,66.868612 10.419991,63.678418 10.243071,60.255371 10.243071,59.261842 v -1.806416 h 28.429631 28.429631 l 0.07922,8.929687 c 0.07691,8.669141 0.09654,8.962091 0.672828,10.040281 0.815186,1.525154 2.112119,2.345601 8.955574,5.665346 12.137014,5.887638 12.472547,5.948116 18.628943,3.35776 5.192582,-2.184821 13.662192,-6.476339 14.786942,-7.492485 2.06015,-1.861221 2.00588,-1.561273 2.08161,-11.504756 l 0.0675,-8.863542 28.61023,-0.06733 28.61024,-0.06733 -0.1653,1.919414 c -0.0909,1.055678 -0.58299,8.527383 -1.09349,16.603789 -0.51051,8.076406 -1.10744,17.306105 -1.32652,20.510443 -0.52323,7.653207 -0.5905,6.907847 0.64124,7.104817 2.07951,0.33253 2.07181,0.28337 1.60169,10.21963 -0.38167,8.06701 -0.43104,8.41435 -1.32264,9.30595 l -0.74873,0.74873 -77.212543,-0.0168 c -43.984054,-0.01 -77.462092,-0.11729 -77.792424,-0.25035 z m 70.40235,-45.175056 c 0.07723,-0.254662 0.268976,-1.058333 0.426103,-1.785938 0.157127,-0.727604 0.825306,-3.60415 1.484842,-6.392325 l 1.199156,-5.06941 -1.180585,-1.088225 c -2.402751,-2.214779 -3.14557,-6.109983 -1.699893,-8.913925 3.045191,-5.906256 11.60043,-5.681179 14.279667,0.375679 0.360768,0.815576 0.509492,1.725197 0.497175,3.040795 -0.0216,2.307128 -0.835109,4.156075 -2.485249,5.648485 -0.61413,0.555427 -1.076816,1.131625 -1.028192,1.280439 0.211572,0.647519 2.948844,12.73827 2.951432,13.036717 0.0022,0.256654 -1.630764,0.330729 -7.291002,0.330729 -6.823647,0 -7.284819,-0.02985 -7.153454,-0.463021 z M 7.9941125,53.446388 c -1.145318,-0.62785 -1.1906249,-0.88274 -1.1906249,-6.698285 0,-6.389133 0.096726,-6.752162 1.8009403,-6.759228 0.5374517,-0.0022 1.1015227,-0.09153 1.2534917,-0.198437 0.1519684,-0.106913 0.4288434,-1.146886 0.6152764,-2.311053 0.761224,-4.753395 2.411217,-10.130725 4.394338,-14.321156 4.132729,-8.732658 9.579111,-13.8371147 17.203661,-16.1236114 2.016426,-0.6046981 3.025328,-0.7339707 6.585227,-0.8437777 5.442427,-0.1678745 11.274405,0.5488834 8.992283,1.1051637 -2.479092,0.6042929 -7.325976,4.6540984 -9.574146,7.9996604 -1.676406,2.494707 -3.401198,6.120307 -4.544096,9.551922 -0.955932,2.870243 -2.615601,10.221625 -3.045923,13.491695 l -0.182792,1.389062 h 1.686389 1.68639 l 0.459025,-2.711979 C 36.596759,22.46342 42.257807,13.088564 51.144677,8.8454597 l 2.093184,-0.9994065 36.066854,-0.068944 36.066855,-0.068944 1.81277,0.7616434 c 2.72068,1.1431096 5.43368,3.0462664 7.94742,5.5750764 5.3594,5.391528 8.52782,12.690659 10.31604,23.765229 l 0.30974,1.918229 h 1.73232 1.73231 l -0.1731,-1.472862 c -0.67873,-5.77494 -3.10513,-14.486077 -5.19073,-18.63547 -2.90406,-5.777773 -7.19248,-10.1652618 -11.74372,-12.0150271 -1.469,-0.5970432 -1.50944,-0.6374252 -0.78961,-0.7884156 3.63864,-0.7632408 9.72434,-0.9095906 13.32639,-0.3204751 11.30459,1.8488672 19.26824,10.2336618 23.14472,24.3687088 0.4789,1.74625 1.07903,4.445178 1.33362,5.997617 0.49722,3.031945 0.55961,3.117897 2.26971,3.126895 0.37763,0.002 0.91341,0.25391 1.19063,0.55983 0.45044,0.497081 0.51313,1.080774 0.58963,5.490104 0.0539,3.104316 -0.0235,5.301235 -0.2086,5.924533 -0.57856,1.94819 1.49061,1.829432 -30.77565,1.766328 -15.87974,-0.03106 -29.07432,-0.109307 -29.32129,-0.173891 -0.30415,-0.07954 -0.50731,-0.515205 -0.62964,-1.350254 -0.55835,-3.811278 -2.6414,-5.822482 -6.61917,-6.39087 -1.45271,-0.207579 -6.930357,-0.275974 -17.462501,-0.218039 l -15.345833,0.08441 -1.322916,0.609498 c -2.421403,1.115595 -3.583488,2.692157 -4.188761,5.682746 l -0.332988,1.645256 -29.224541,0.05875 C 16.947957,53.719534 8.3707342,53.652847 7.9941125,53.446388 Z"
     id="path1"
     inkscape:label="chest" /></svg>
